<svg clip-rule="evenodd" fill-rule="evenodd" height="51.1666mm" image-rendering="optimizeQuality" shape-rendering="geometricPrecision" text-rendering="geometricPrecision" viewBox="0 0 4321.09 4321.09" width="51.1666mm" xmlns="http://www.w3.org/2000/svg"><circle cx="2160.55" cy="2160.55" fill="#00afef" r="2160.55"/><path d="m2138.94 3686.75c-397.17-4.26-777.11-164.38-1057.64-446.33l-20.86-20.75v-2.31c-570.27-588.38-570.27-1523.27 0-2111.66v-.41l20.86-22.65c9.26-9.31 18.61-18.47 28.05-27.49 9.44-9.02 18.98-17.9 28.59-26.62v-.01c9.62-8.72 19.31-17.3 29.1-25.75 9.78-8.44 19.64-16.73 29.58-24.88 9.95-8.15 19.96-16.16 30.06-24.01v-.01c10.1-7.85 20.28-15.56 30.52-23.14 10.25-7.57 20.57-14.99 30.97-22.27v-.01c10.39-7.28 20.85-14.41 31.39-21.4 10.53-6.99 21.13-13.83 31.8-20.53v-.01c10.67-6.7 21.39-13.25 32.18-19.66 10.79-6.41 21.64-12.68 32.56-18.79v-.01c10.91-6.11 21.88-12.09 32.91-17.92 11.04-5.84 22.12-11.52 33.27-17.06 11.14-5.54 22.33-10.93 33.58-16.18v-.01c11.24-5.24 22.54-10.35 33.89-15.31 11.34-4.97 22.73-9.78 34.18-14.45 11.43-4.67 22.92-9.19 34.45-13.57 11.53-4.38 23.1-8.62 34.7-12.71 11.61-4.09 23.26-8.03 34.95-11.83v-.01c11.69-3.8 23.41-7.45 35.17-10.96 11.76-3.51 23.55-6.87 35.38-10.09v-.01c11.81-3.22 23.67-6.29 35.55-9.22 11.88-2.93 23.8-5.72 35.73-8.35v-.01c11.93-2.63 23.9-5.13 35.88-7.48 11.98-2.35 23.99-4.55 36.03-6.61 12.03-2.06 24.08-3.98 36.14-5.74v-.01c12.07-1.77 24.15-3.39 36.25-4.87 12.1-1.48 24.21-2.81 36.33-4 12.13-1.19 24.25-2.23 36.4-3.13 12.14-.9 24.31-1.66 36.46-2.26 12.16-.61 24.32-1.07 36.49-1.39 12.17-.32 24.34-.49 36.51-.52 12.18-.03 24.35.08 36.52.35v.01c12.17.25 24.33.66 36.49 1.21v.01c12.16.55 24.32 1.24 36.47 2.09 12.14.84 24.29 1.82 36.42 2.96v.01c12.13 1.13 24.25 2.41 36.36 3.83 12.1 1.43 24.19 2.99 36.26 4.7 12.08 1.71 24.14 3.56 36.17 5.57 12.03 2 24.05 4.15 36.05 6.44 11.99 2.29 23.98 4.73 35.92 7.31 11.95 2.58 23.88 5.31 35.77 8.18 11.9 2.87 23.76 5.89 35.6 9.05v.01c11.83 3.16 23.64 6.47 35.42 9.92 11.77 3.45 23.51 7.05 35.22 10.79v.01c11.7 3.74 23.37 7.63 35 11.66v.01c11.63 4.03 23.22 8.21 34.77 12.53v.01c11.54 4.32 23.06 8.79 34.52 13.4v.01c11.46 4.61 22.88 9.37 34.25 14.27v.01c11.37 4.91 22.69 9.95 33.96 15.15 11.27 5.2 22.49 10.54 33.66 16.03 11.16 5.49 22.28 11.11 33.33 16.89 11.06 5.78 22.07 11.7 33 17.77v.01c10.94 6.06 21.83 12.27 32.66 18.63v.01c10.82 6.36 21.58 12.86 32.28 19.51 10.7 6.65 21.33 13.44 31.9 20.38v.01c10.56 6.94 21.06 14.02 31.48 21.25 10.43 7.23 20.79 14.61 31.07 22.13 10.29 7.52 20.5 15.18 30.64 23 10.13 7.81 20.19 15.77 30.17 23.87 9.98 8.1 19.89 16.34 29.71 24.74v.01c9.82 8.39 19.56 16.92 29.21 25.61 9.66 8.68 19.23 17.51 28.72 26.48 9.48 8.98 18.87 18.09 28.19 27.35v.01l.08.08.08.08v.01l.08.08.08.08v.01l.08.08.08.08v.01l.08.08.08.08.08.08.08.08.08.08.08.08v.01l.08.08.08.08v.01l.08.08.08.08v.01l.08.08.08.08v.01l.08.08.08.08.08.08.08.08.08.08.08.08v.01l.08.08.08.08v.01l.08.08.08.08v.01l.08.08.08.08.08.08.08.08.08.08.08.08.08.08.08.08v.01l.08.08.08.08v.01l.08.08.08.08.08.08.08.08.08.08.08.08.08.08.08.08.08.08.08.08.08.08.08.08.08.08.08.08.08.08v.01l.08.08.08.08v.01l.08.08.08.08.08.08.08.08v.01l.08.08.08.08v.01l.08.08.08.08v.01l.08.08 20.86 20.74v2.31c570.26 588.39 570.27 1523.27.01 2111.65v2.35l-20.86 20.75c-214.1 215.19-486.12 359.42-779.51 417.54-12.22 2.42-24.48 4.7-36.78 6.82-6.15 1.06-12.3 2.09-18.47 3.07v.01c-6.16.98-12.34 1.93-18.52 2.84-6.18.91-12.37 1.78-18.56 2.62-6.2.84-12.41 1.63-18.61 2.39-6.22.76-12.43 1.47-18.66 2.15-6.23.68-12.47 1.33-18.7 1.93v.01c-6.24.6-12.49 1.17-18.74 1.69-6.26.53-12.52 1.02-18.78 1.47s-12.53.86-18.81 1.23c-6.27.37-12.56.71-18.84 1l-.01.01c-6.28.29-12.57.55-18.87.76-6.3.22-12.6.4-18.9.53h-.01c-5.65.13-11.3.21-16.96.27-6.96.33-13.93.5-20.94.5v-.01c-7.04 0-14.06-.17-21.05-.5zm92.32-2901.76v702.56c159.54-8.18 317.94-43.83 467.6-106.97-106.8-322.49-276.28-549.8-467.6-595.59zm0 844.65v460.1h584.78c-5.2-204.23-32.58-398.37-76.99-571.72-160.37 65.7-332.04 103.91-507.79 111.62zm0 601.76v460.4c173.05 8.07 345.01 45.52 507.75 112.4 44.5-173.65 71.91-368.17 77.06-572.79h-584.81zm0 602.17v703.43c191.41-45.82 360.98-273.28 467.76-596.03-149.66-63.4-308.14-99.19-467.76-107.4zm-141.66 703.65v-703.7c-159.92 8.12-318.69 43.94-468.63 107.46 106.94 323.23 276.86 550.89 468.63 596.24zm0-845.47v-460.35h-585.69c5.14 204.6 32.56 399.1 77.05 572.73 162.99-66.95 335.26-104.42 508.64-112.38zm0-602.01v-460.06c-176.06-7.6-348.03-45.81-508.68-111.61-44.4 173.34-71.78 367.47-76.99 571.67zm0-602.15v-702.8c-191.68 45.32-361.52 272.81-468.47 595.78 149.93 63.26 308.64 98.93 468.47 107.02zm-1313.29 602.15h585.91c5.26-228.96 35.77-443.29 86.46-633.4-113.38-59.77-219.51-134.08-315.46-221.75-221.96 243.22-340.96 546.98-356.91 855.16zm2181.45 0h585.79c-16-307.94-134.89-611.63-357.04-855.05-95.88 87.59-201.93 161.86-315.23 221.58 50.7 190.13 81.23 404.5 86.49 633.47zm585.91 141.66h-585.89c-5.21 229.46-35.8 444.27-86.62 634.75 111.9 59.18 218.02 133.24 315.35 222.31 222.49-243.69 341.58-548.21 357.16-857.06zm-2181.47 0h-585.97c15.62 308.6 134.62 613.03 357.26 856.94 97.29-89.03 203.39-163.06 315.3-222.24-50.81-190.45-81.38-405.24-86.59-634.69zm395.29 1254.15c-107.85-118.04-199.11-282.91-266.76-481.09-91.05 50.49-177.67 111.98-257.87 184.6 15.27 13.76 30.72 27.18 46.43 40.15l.33.27c8.25 6.81 16.58 13.49 24.95 20.07.64.51 1.28 1.03 1.92 1.53 7.74 6.07 15.56 12.02 23.41 17.9 1.25.94 2.48 1.91 3.73 2.84 6.48 4.83 13.02 9.52 19.56 14.21 20.06 14.39 40.38 28.25 61 41.44l.62.41c8.28 5.3 16.63 10.47 25 15.56.84.52 1.69 1.06 2.54 1.58 8.13 4.94 16.32 9.75 24.53 14.5 1.11.64 2.22 1.31 3.34 1.95 7.96 4.57 15.95 9.03 23.98 13.42 1.43.79 2.85 1.6 4.29 2.38 7.78 4.23 15.6 8.35 23.44 12.41 1.71.9 3.42 1.82 5.14 2.69 7.74 3.98 15.52 7.85 23.31 11.66 1.82.9 3.64 1.82 5.46 2.69 7.69 3.73 15.41 7.36 23.16 10.93 1.99.92 3.99 1.87 6 2.78 7.62 3.47 15.27 6.85 22.94 10.18 2.14.93 4.27 1.87 6.42 2.79 7.53 3.23 15.1 6.37 22.68 9.45 2.35.96 4.7 1.93 7.04 2.86 7.48 3 14.99 5.92 22.51 8.78 2.42.92 4.84 1.85 7.27 2.75 7.46 2.8 14.95 5.51 22.45 8.17 2.55.9 5.11 1.81 7.67 2.69 7.41 2.58 14.86 5.1 22.3 7.55 2.65.87 5.3 1.73 7.96 2.59 7.38 2.37 14.77 4.7 22.19 6.94l1.08.33zm-266.68-2168.21c67.84-198.65 159.4-363.81 267.62-481.87-189.81 57.6-369.75 156.99-525.5 298.2 80.26 72.25 166.88 133.43 257.88 183.67zm1070.72-481.88c108.22 118.06 199.79 283.23 267.63 481.89 91-50.24 177.64-111.43 257.9-183.68-155.75-141.22-335.7-240.62-525.52-298.21zm267.7 2168.96c-67.65 198.19-158.92 363.09-266.78 481.14l3.17-.96c6.97-2.13 13.92-4.29 20.86-6.54 3-.96 5.99-1.96 8.99-2.96 7.17-2.36 14.32-4.76 21.46-7.25 2.75-.96 5.49-1.95 8.23-2.93 7.35-2.61 14.68-5.26 21.98-8 2.43-.91 4.85-1.86 7.27-2.79 7.58-2.89 15.16-5.82 22.7-8.85 2.11-.84 4.21-1.73 6.32-2.59 7.82-3.18 15.63-6.42 23.41-9.75 1.66-.72 3.32-1.46 4.97-2.18 8.19-3.56 16.36-7.16 24.49-10.88 1.11-.51 2.2-1.03 3.29-1.54 8.65-3.98 17.27-8.02 25.85-12.19l1.11-.56c47.16-22.96 93.3-48.76 138.16-77.41l.54-.34c6.02-3.84 11.98-7.82 17.96-11.77 3.32-2.2 6.66-4.34 9.97-6.57 4.64-3.12 9.21-6.34 13.82-9.53 4.62-3.19 9.25-6.36 13.83-9.61 3.62-2.57 7.2-5.22 10.81-7.83 5.59-4.05 11.18-8.1 16.73-12.24 2.71-2.02 5.39-4.11 8.09-6.16 6.42-4.86 12.82-9.76 19.17-14.75 1.93-1.52 3.84-3.08 5.78-4.61 7.14-5.68 14.24-11.41 21.29-17.24 1.15-.95 2.29-1.93 3.44-2.88 7.85-6.55 15.67-13.18 23.41-19.93l1.1-.96c5.54-4.84 11-9.8 16.48-14.74-80.21-72.63-166.85-134.13-257.91-184.61zm-370.09 653.56c-12.22 2.42-24.48 4.7-36.78 6.82zm-302.81-3023.65c12.18-.03 24.35.08 36.52.35z" fill="#fefefe"/></svg>